<svg xmlns="http://www.w3.org/2000/svg" xmlns:xlink="http://www.w3.org/1999/xlink" width="2000" zoomAndPan="magnify" viewBox="0 0 1500 1499.999933" height="2000" preserveAspectRatio="xMidYMid meet" version="1.0"><defs><g/><clipPath id="ddc4a5fc46"><rect x="0" width="438" y="0" height="771"/></clipPath><clipPath id="9703c3aeb1"><path d="M 6 0.601562 L 614 0.601562 L 614 667 L 6 667 Z M 6 0.601562 " clip-rule="nonzero"/></clipPath><clipPath id="520d0b105a"><rect x="0" width="621" y="0" height="817"/></clipPath><clipPath id="8ff0ccf726"><rect x="0" width="670" y="0" height="88"/></clipPath></defs><g transform="matrix(1, 0, 0, 1, 609, 375)"><g clip-path="url(#ddc4a5fc46)"><g fill="#000000" fill-opacity="1"><g transform="translate(3.899224, 585.047212)"><g><path d="M 38.546875 0 L 38.546875 -231.265625 L 48.5625 -231.265625 C 48.5625 -179.878906 56.015625 -137.867188 70.921875 -105.234375 C 85.828125 -72.597656 106.128906 -48.566406 131.828125 -33.140625 C 157.523438 -17.722656 186.046875 -10.015625 217.390625 -10.015625 C 236.921875 -10.015625 254.78125 -12.96875 270.96875 -18.875 C 287.15625 -24.789062 300.128906 -34.554688 309.890625 -48.171875 C 319.660156 -61.796875 324.546875 -79.914062 324.546875 -102.53125 C 324.546875 -124.113281 317.734375 -143.898438 304.109375 -161.890625 C 290.492188 -179.878906 272.765625 -197.09375 250.921875 -213.53125 C 229.085938 -229.976562 206.09375 -246.296875 181.9375 -262.484375 C 157.78125 -278.679688 134.78125 -295.515625 112.9375 -312.984375 C 91.09375 -330.460938 73.359375 -349.476562 59.734375 -370.03125 C 46.117188 -390.59375 39.3125 -413.207031 39.3125 -437.875 C 39.3125 -467.6875 47.40625 -492.351562 63.59375 -511.875 C 79.789062 -531.40625 100.222656 -546.050781 124.890625 -555.8125 C 149.554688 -565.582031 174.484375 -570.46875 199.671875 -570.46875 C 219.191406 -570.46875 235.757812 -568.539062 249.375 -564.6875 C 263 -560.832031 274.691406 -556.207031 284.453125 -550.8125 C 294.222656 -545.414062 303.09375 -540.789062 311.0625 -536.9375 C 319.03125 -533.082031 326.867188 -531.15625 334.578125 -531.15625 C 344.847656 -531.15625 351.78125 -533.46875 355.375 -538.09375 C 358.976562 -542.71875 360.78125 -550.679688 360.78125 -561.984375 L 370.8125 -561.984375 L 370.8125 -380.0625 L 360.78125 -380.0625 C 360.78125 -414.488281 354.226562 -444.675781 341.125 -470.625 C 328.019531 -496.582031 310.160156 -516.753906 287.546875 -531.140625 C 264.929688 -545.535156 239.234375 -552.734375 210.453125 -552.734375 C 179.617188 -552.734375 157.519531 -545.410156 144.15625 -530.765625 C 130.789062 -516.117188 124.109375 -497.488281 124.109375 -474.875 C 124.109375 -449.695312 130.789062 -427.46875 144.15625 -408.1875 C 157.519531 -388.914062 174.738281 -371.441406 195.8125 -355.765625 C 216.882812 -340.097656 239.238281 -324.8125 262.875 -309.90625 C 286.519531 -295 308.878906 -279.191406 329.953125 -262.484375 C 351.023438 -245.785156 368.238281 -227.15625 381.59375 -206.59375 C 394.957031 -186.039062 401.640625 -161.890625 401.640625 -134.140625 C 401.640625 -107.929688 396.367188 -84.03125 385.828125 -62.4375 C 375.296875 -40.851562 357.695312 -23.507812 333.03125 -10.40625 C 308.363281 2.695312 274.1875 9.25 230.5 9.25 C 209.425781 9.25 191.691406 7.445312 177.296875 3.84375 C 162.910156 0.25 150.445312 -3.984375 139.90625 -8.859375 C 129.375 -13.742188 119.738281 -17.984375 111 -21.578125 C 102.269531 -25.179688 93.28125 -26.984375 84.03125 -26.984375 C 60.382812 -26.984375 48.5625 -17.988281 48.5625 0 Z M 38.546875 0 "/></g></g></g></g></g><g transform="matrix(1, 0, 0, 1, 371, 327)"><g clip-path="url(#520d0b105a)"><g clip-path="url(#9703c3aeb1)"><g fill="#ffffff" fill-opacity="1"><g transform="translate(27.523028, 625.60071)"><g><path d="M 19.816406 -618.414062 L 192.855469 -618.414062 L 511.738281 -173.460938 L 478.722656 -149.796875 L 438.101562 -149.710938 L 437.308594 -524.605469 C 437.308594 -530.351562 437.003906 -534.042969 436.394531 -535.679688 C 436.929688 -534.242188 437.910156 -532.695312 439.339844 -531.035156 C 441.925781 -528.03125 445.136719 -525.761719 448.972656 -524.226562 C 444.566406 -525.988281 435.726562 -526.871094 422.449219 -526.871094 L 381.828125 -526.871094 L 381.828125 -618.414062 L 585.125 -618.414062 L 585.125 -526.871094 L 544.503906 -526.871094 C 531.40625 -526.871094 522.515625 -526 517.832031 -524.257812 C 521.179688 -525.503906 524.070312 -527.363281 526.503906 -529.839844 C 528.019531 -531.386719 529.121094 -532.90625 529.808594 -534.402344 C 529.371094 -533.453125 529.035156 -530.785156 528.789062 -526.402344 L 488.230469 -528.652344 L 528.851562 -528.714844 L 529.707031 40.621094 L 457.859375 40.621094 L 78.738281 -488.347656 L 111.753906 -512.007812 L 152.375 -512.007812 L 152.375 -53.101562 C 152.375 -47.542969 152.667969 -43.996094 153.253906 -42.464844 C 152.6875 -43.949219 151.667969 -45.523438 150.195312 -47.183594 C 147.628906 -50.082031 144.480469 -52.257812 140.742188 -53.710938 C 145.519531 -51.851562 154.613281 -50.925781 168.027344 -50.925781 L 208.648438 -50.925781 L 208.648438 40.621094 L 4.558594 40.621094 L 4.558594 -50.925781 L 45.175781 -50.925781 C 58.984375 -50.925781 68.089844 -51.804688 72.496094 -53.566406 C 68.65625 -52.03125 65.445312 -49.761719 62.859375 -46.757812 C 61.433594 -45.097656 60.453125 -43.550781 59.914062 -42.113281 C 60.523438 -43.75 60.832031 -47.414062 60.832031 -53.101562 L 60.832031 -526.277344 L 101.449219 -526.277344 L 66.617188 -505.375 C 61.59375 -513.75 56.351562 -519.117188 50.882812 -521.472656 C 42.542969 -525.070312 32.1875 -526.871094 19.816406 -526.871094 L -20.804688 -526.871094 L -20.804688 -618.414062 Z M 19.816406 -537.171875 L 19.816406 -577.792969 L 60.433594 -577.792969 L 60.433594 -567.492188 L 19.816406 -567.492188 L 19.816406 -608.109375 C 43.371094 -608.109375 64.453125 -604.097656 83.0625 -596.070312 C 104.542969 -586.804688 122.285156 -570.503906 136.28125 -547.175781 L 142.070312 -537.527344 L 142.070312 -53.101562 C 142.070312 -13.632812 128.9375 11.355469 102.667969 21.863281 C 88.578125 27.5 69.414062 30.316406 45.175781 30.316406 L 45.175781 -10.304688 L 85.796875 -10.304688 L 85.796875 0 L 45.175781 0 L 45.175781 -40.621094 L 168.027344 -40.621094 L 168.027344 0 L 127.40625 0 L 127.40625 -10.304688 L 168.027344 -10.304688 L 168.027344 30.316406 C 144.453125 30.316406 125.542969 27.546875 111.296875 22.007812 C 84.523438 11.59375 71.132812 -13.441406 71.132812 -53.101562 L 71.132812 -638.414062 L 511.738281 -23.664062 L 478.722656 0 L 478.722656 -40.621094 L 489.023438 -40.621094 L 489.023438 0 L 448.402344 0.0625 L 447.609375 -529.75 L 447.671875 -530.90625 C 448.488281 -545.542969 451.25 -558 455.96875 -568.28125 C 463.21875 -584.085938 474.410156 -594.796875 489.542969 -600.417969 C 503.351562 -605.546875 521.671875 -608.109375 544.503906 -608.109375 L 544.503906 -567.492188 L 503.886719 -567.492188 L 503.886719 -577.792969 L 544.503906 -577.792969 L 544.503906 -537.171875 L 422.449219 -537.171875 L 422.449219 -577.792969 L 463.066406 -577.792969 L 463.066406 -567.492188 L 422.449219 -567.492188 L 422.449219 -608.109375 C 446.15625 -608.109375 465.054688 -605.292969 479.144531 -599.65625 C 505.414062 -589.148438 518.546875 -564.1875 518.546875 -524.777344 L 519.609375 -23.011719 L 138.972656 -554.132812 L 171.992188 -577.792969 L 171.992188 -537.171875 Z M 19.816406 -537.171875 "/></g></g></g></g><g fill="#000000" fill-opacity="1"><g transform="translate(27.523028, 625.60071)"><g><path d="M 19.8125 -577.796875 L 171.984375 -577.796875 L 478.71875 -149.796875 L 477.921875 -524.6875 C 477.921875 -545.820312 473.296875 -558.238281 464.046875 -561.9375 C 454.804688 -565.632812 440.9375 -567.484375 422.4375 -567.484375 L 422.4375 -577.796875 L 544.5 -577.796875 L 544.5 -567.484375 C 526.53125 -567.484375 512.921875 -565.765625 503.671875 -562.328125 C 494.429688 -558.898438 489.285156 -547.675781 488.234375 -528.65625 L 489.015625 0 L 478.71875 0 L 111.75 -512 L 111.75 -53.109375 C 111.75 -31.972656 116.503906 -19.550781 126.015625 -15.84375 C 135.523438 -12.144531 149.53125 -10.296875 168.03125 -10.296875 L 168.03125 0 L 45.171875 0 L 45.171875 -10.296875 C 64.191406 -10.296875 78.328125 -12.144531 87.578125 -15.84375 C 96.828125 -19.550781 101.453125 -31.972656 101.453125 -53.109375 L 101.453125 -526.265625 C 91.941406 -542.117188 80.445312 -552.953125 66.96875 -558.765625 C 53.5 -564.578125 37.78125 -567.484375 19.8125 -567.484375 Z M 19.8125 -577.796875 "/></g></g></g></g></g><g transform="matrix(1, 0, 0, 1, 425, 1001)"><g clip-path="url(#8ff0ccf726)"><g fill="#000000" fill-opacity="1"><g transform="translate(1.62088, 69.294424)"><g><path d="M 10.21875 -35.296875 L 10.21875 0 L 5.28125 0 L 5.28125 -50.921875 L 32.1875 -12.671875 L 32.1875 -47.890625 L 37.125 -47.890625 L 37.125 2.953125 Z M 10.21875 -35.296875 "/></g></g></g><g fill="#000000" fill-opacity="1"><g transform="translate(64.370475, 69.294424)"><g><path d="M 47.46875 -24.09375 C 47.46875 -29.488281 45.546875 -34.113281 41.703125 -37.96875 C 37.847656 -41.8125 33.195312 -43.734375 27.75 -43.734375 C 22.351562 -43.734375 17.726562 -41.8125 13.875 -37.96875 C 10.019531 -34.113281 8.09375 -29.488281 8.09375 -24.09375 C 8.09375 -18.644531 10.019531 -13.992188 13.875 -10.140625 C 17.726562 -6.285156 22.351562 -4.359375 27.75 -4.359375 C 33.195312 -4.359375 37.847656 -6.285156 41.703125 -10.140625 C 45.546875 -13.992188 47.46875 -18.644531 47.46875 -24.09375 Z M 52.40625 -24.09375 C 52.40625 -20.707031 51.769531 -17.515625 50.5 -14.515625 C 49.1875 -11.503906 47.425781 -8.894531 45.21875 -6.6875 C 42.96875 -4.4375 40.335938 -2.675781 37.328125 -1.40625 C 34.328125 -0.09375 31.132812 0.5625 27.75 0.5625 C 24.375 0.5625 21.207031 -0.09375 18.25 -1.40625 C 15.238281 -2.675781 12.628906 -4.4375 10.421875 -6.6875 C 8.171875 -8.894531 6.410156 -11.503906 5.140625 -14.515625 C 3.828125 -17.515625 3.171875 -20.707031 3.171875 -24.09375 C 3.171875 -27.46875 3.828125 -30.660156 5.140625 -33.671875 C 6.410156 -36.671875 8.171875 -39.273438 10.421875 -41.484375 C 12.628906 -43.691406 15.238281 -45.453125 18.25 -46.765625 C 21.207031 -48.035156 24.375 -48.671875 27.75 -48.671875 C 31.132812 -48.671875 34.328125 -48.035156 37.328125 -46.765625 C 40.335938 -45.453125 42.96875 -43.691406 45.21875 -41.484375 C 47.425781 -39.273438 49.1875 -36.671875 50.5 -33.671875 C 51.769531 -30.660156 52.40625 -27.46875 52.40625 -24.09375 Z M 52.40625 -24.09375 "/></g></g></g><g fill="#000000" fill-opacity="1"><g transform="translate(140.285584, 69.294424)"><g><path d="M 10.21875 -23.671875 L 21.34375 -23.671875 C 24.113281 -23.671875 26.390625 -24.609375 28.171875 -26.484375 C 30.003906 -28.410156 30.921875 -30.78125 30.921875 -33.59375 C 30.921875 -36.363281 30.050781 -38.664062 28.3125 -40.5 C 26.570312 -42.28125 24.25 -43.171875 21.34375 -43.171875 L 10.21875 -43.171875 Z M 35.859375 -33.453125 C 35.859375 -29.273438 34.378906 -25.800781 31.421875 -23.03125 C 28.785156 -20.59375 25.613281 -19.253906 21.90625 -19.015625 L 36.625 0 L 30 0 L 15.984375 -18.953125 L 10.21875 -18.953125 L 10.21875 0 L 5.28125 0 L 5.28125 -47.890625 L 20.640625 -47.890625 C 24.910156 -47.890625 28.503906 -46.550781 31.421875 -43.875 C 34.378906 -41.0625 35.859375 -37.585938 35.859375 -33.453125 Z M 35.859375 -33.453125 "/></g></g></g><g fill="#000000" fill-opacity="1"><g transform="translate(198.951726, 69.294424)"><g><path d="M 47.46875 -24.09375 C 47.46875 -29.488281 45.546875 -34.113281 41.703125 -37.96875 C 37.847656 -41.8125 33.195312 -43.734375 27.75 -43.734375 C 22.351562 -43.734375 17.726562 -41.8125 13.875 -37.96875 C 10.019531 -34.113281 8.09375 -29.488281 8.09375 -24.09375 C 8.09375 -18.644531 10.019531 -13.992188 13.875 -10.140625 C 17.726562 -6.285156 22.351562 -4.359375 27.75 -4.359375 C 33.195312 -4.359375 37.847656 -6.285156 41.703125 -10.140625 C 45.546875 -13.992188 47.46875 -18.644531 47.46875 -24.09375 Z M 52.40625 -24.09375 C 52.40625 -20.707031 51.769531 -17.515625 50.5 -14.515625 C 49.1875 -11.503906 47.425781 -8.894531 45.21875 -6.6875 C 42.96875 -4.4375 40.335938 -2.675781 37.328125 -1.40625 C 34.328125 -0.09375 31.132812 0.5625 27.75 0.5625 C 24.375 0.5625 21.207031 -0.09375 18.25 -1.40625 C 15.238281 -2.675781 12.628906 -4.4375 10.421875 -6.6875 C 8.171875 -8.894531 6.410156 -11.503906 5.140625 -14.515625 C 3.828125 -17.515625 3.171875 -20.707031 3.171875 -24.09375 C 3.171875 -27.46875 3.828125 -30.660156 5.140625 -33.671875 C 6.410156 -36.671875 8.171875 -39.273438 10.421875 -41.484375 C 12.628906 -43.691406 15.238281 -45.453125 18.25 -46.765625 C 21.207031 -48.035156 24.375 -48.671875 27.75 -48.671875 C 31.132812 -48.671875 34.328125 -48.035156 37.328125 -46.765625 C 40.335938 -45.453125 42.96875 -43.691406 45.21875 -41.484375 C 47.425781 -39.273438 49.1875 -36.671875 50.5 -33.671875 C 51.769531 -30.660156 52.40625 -27.46875 52.40625 -24.09375 Z M 52.40625 -24.09375 "/></g></g></g><g fill="#000000" fill-opacity="1"><g transform="translate(274.866835, 69.294424)"><g/></g></g><g fill="#000000" fill-opacity="1"><g transform="translate(314.242311, 69.294424)"><g><path d="M 18.59375 -22.609375 C 8.820312 -24.859375 3.9375 -29.035156 3.9375 -35.140625 C 3.9375 -39.648438 5.507812 -43.035156 8.65625 -45.296875 C 11.8125 -47.503906 15.5 -48.609375 19.71875 -48.609375 C 29.0625 -48.609375 34.601562 -45.128906 36.34375 -38.171875 L 31 -38.171875 C 30.050781 -42.304688 26.289062 -44.375 19.71875 -44.375 C 15.113281 -44.375 11.898438 -43.015625 10.078125 -40.296875 C 9.367188 -39.253906 9.015625 -37.960938 9.015625 -36.421875 C 9.015625 -33.460938 10.613281 -31.179688 13.8125 -29.578125 C 15.3125 -28.785156 18.503906 -27.753906 23.390625 -26.484375 C 28.265625 -25.210938 31.804688 -23.804688 34.015625 -22.265625 C 37.066406 -20.097656 38.59375 -17.066406 38.59375 -13.171875 C 38.59375 -8.335938 36.691406 -4.675781 32.890625 -2.1875 C 29.703125 -0.113281 25.757812 0.921875 21.0625 0.921875 C 10.445312 0.921875 4.296875 -3.117188 2.609375 -11.203125 L 8.453125 -11.203125 C 9.347656 -6.128906 13.550781 -3.59375 21.0625 -3.59375 C 26.414062 -3.59375 30.148438 -5.070312 32.265625 -8.03125 C 33.109375 -9.207031 33.53125 -10.800781 33.53125 -12.8125 C 33.53125 -14.789062 32.753906 -16.414062 31.203125 -17.6875 C 28.992188 -19.46875 24.789062 -21.109375 18.59375 -22.609375 Z M 18.59375 -22.609375 "/></g></g></g><g fill="#000000" fill-opacity="1"><g transform="translate(375.020562, 69.294424)"><g><path d="M 1.40625 -43.453125 L 1.40625 -48.03125 L 29.578125 -48.03125 L 29.578125 -43.453125 L 17.96875 -43.453125 L 17.96875 -0.140625 L 13.03125 -0.140625 L 13.03125 -43.453125 Z M 1.40625 -43.453125 "/></g></g></g><g fill="#000000" fill-opacity="1"><g transform="translate(426.364707, 69.294424)"><g><path d="M 39.9375 -15.84375 C 39.9375 -10.675781 38.242188 -6.59375 34.859375 -3.59375 C 31.671875 -0.769531 27.425781 0.640625 22.125 0.640625 C 16.769531 0.640625 12.492188 -0.769531 9.296875 -3.59375 C 5.910156 -6.59375 4.21875 -10.675781 4.21875 -15.84375 L 4.21875 -47.890625 L 9.15625 -47.890625 L 9.15625 -15.140625 C 9.15625 -11.523438 10.46875 -8.753906 13.09375 -6.828125 C 15.351562 -5.140625 18.363281 -4.296875 22.125 -4.296875 C 27.988281 -4.296875 31.929688 -6.269531 33.953125 -10.21875 C 34.648438 -11.570312 35 -13.210938 35 -15.140625 L 35 -47.890625 L 39.9375 -47.890625 Z M 39.9375 -15.84375 "/></g></g></g><g fill="#000000" fill-opacity="1"><g transform="translate(490.874365, 69.294424)"><g><path d="M 42.46875 -23.953125 C 42.46875 -20.472656 41.835938 -17.28125 40.578125 -14.375 C 39.253906 -11.414062 37.492188 -8.878906 35.296875 -6.765625 C 33.085938 -4.648438 30.476562 -3.003906 27.46875 -1.828125 C 24.46875 -0.609375 21.253906 0 17.828125 0 L 5.28125 0 L 5.28125 -47.890625 L 17.828125 -47.890625 C 21.253906 -47.890625 24.46875 -47.304688 27.46875 -46.140625 C 30.476562 -44.921875 33.085938 -43.253906 35.296875 -41.140625 C 37.492188 -39.023438 39.253906 -36.507812 40.578125 -33.59375 C 41.835938 -30.632812 42.46875 -27.421875 42.46875 -23.953125 Z M 37.6875 -23.953125 C 37.6875 -29.398438 35.757812 -33.953125 31.90625 -37.609375 C 28.144531 -41.179688 23.5 -42.96875 17.96875 -42.96875 L 10.21875 -42.96875 L 10.21875 -4.9375 L 17.96875 -4.9375 C 23.5 -4.9375 28.144531 -6.71875 31.90625 -10.28125 C 35.757812 -13.945312 37.6875 -18.503906 37.6875 -23.953125 Z M 37.6875 -23.953125 "/></g></g></g><g fill="#000000" fill-opacity="1"><g transform="translate(556.862505, 69.294424)"><g><path d="M 10.21875 0 L 5.28125 0 L 5.28125 -47.890625 L 10.21875 -47.890625 Z M 10.21875 0 "/></g></g></g><g fill="#000000" fill-opacity="1"><g transform="translate(592.717746, 69.294424)"><g><path d="M 47.46875 -24.09375 C 47.46875 -29.488281 45.546875 -34.113281 41.703125 -37.96875 C 37.847656 -41.8125 33.195312 -43.734375 27.75 -43.734375 C 22.351562 -43.734375 17.726562 -41.8125 13.875 -37.96875 C 10.019531 -34.113281 8.09375 -29.488281 8.09375 -24.09375 C 8.09375 -18.644531 10.019531 -13.992188 13.875 -10.140625 C 17.726562 -6.285156 22.351562 -4.359375 27.75 -4.359375 C 33.195312 -4.359375 37.847656 -6.285156 41.703125 -10.140625 C 45.546875 -13.992188 47.46875 -18.644531 47.46875 -24.09375 Z M 52.40625 -24.09375 C 52.40625 -20.707031 51.769531 -17.515625 50.5 -14.515625 C 49.1875 -11.503906 47.425781 -8.894531 45.21875 -6.6875 C 42.96875 -4.4375 40.335938 -2.675781 37.328125 -1.40625 C 34.328125 -0.09375 31.132812 0.5625 27.75 0.5625 C 24.375 0.5625 21.207031 -0.09375 18.25 -1.40625 C 15.238281 -2.675781 12.628906 -4.4375 10.421875 -6.6875 C 8.171875 -8.894531 6.410156 -11.503906 5.140625 -14.515625 C 3.828125 -17.515625 3.171875 -20.707031 3.171875 -24.09375 C 3.171875 -27.46875 3.828125 -30.660156 5.140625 -33.671875 C 6.410156 -36.671875 8.171875 -39.273438 10.421875 -41.484375 C 12.628906 -43.691406 15.238281 -45.453125 18.25 -46.765625 C 21.207031 -48.035156 24.375 -48.671875 27.75 -48.671875 C 31.132812 -48.671875 34.328125 -48.035156 37.328125 -46.765625 C 40.335938 -45.453125 42.96875 -43.691406 45.21875 -41.484375 C 47.425781 -39.273438 49.1875 -36.671875 50.5 -33.671875 C 51.769531 -30.660156 52.40625 -27.46875 52.40625 -24.09375 Z M 52.40625 -24.09375 "/></g></g></g></g></g></svg>